<mxfile host="app.diagrams.net" agent="Mozilla/5.0 (Windows NT 10.0; Win64; x64) AppleWebKit/537.36 (KHTML, like Gecko) Chrome/129.0.0.0 Safari/537.36" version="24.7.17">
  <diagram name="Page-1" id="e7e014a7-5840-1c2e-5031-d8a46d1fe8dd">
    <mxGraphModel dx="1290" dy="563" grid="1" gridSize="10" guides="1" tooltips="1" connect="1" arrows="1" fold="1" page="1" pageScale="1" pageWidth="1169" pageHeight="826" background="none" math="0" shadow="0">
      <root>
        <mxCell id="0" />
        <mxCell id="1" parent="0" />
        <mxCell id="2" value="User" style="swimlane;whiteSpace=wrap" parent="1" vertex="1">
          <mxGeometry x="110" y="70" width="490" height="860" as="geometry" />
        </mxCell>
        <mxCell id="5" value="" style="ellipse;shape=startState;fillColor=#000000;strokeColor=#ff0000;" parent="2" vertex="1">
          <mxGeometry x="290" y="40" width="30" height="30" as="geometry" />
        </mxCell>
        <mxCell id="6" value="" style="edgeStyle=elbowEdgeStyle;elbow=horizontal;verticalAlign=bottom;endArrow=open;endSize=8;strokeColor=#FF0000;endFill=1;rounded=0" parent="2" source="5" target="7" edge="1">
          <mxGeometry x="100" y="40" as="geometry">
            <mxPoint x="115" y="110" as="targetPoint" />
          </mxGeometry>
        </mxCell>
        <mxCell id="7" value="Đăng nhập" style="" parent="2" vertex="1">
          <mxGeometry x="250" y="110" width="110" height="50" as="geometry" />
        </mxCell>
        <mxCell id="8" value="Chọn trang sản phẩm" style="" parent="2" vertex="1">
          <mxGeometry x="210" y="220" width="190" height="50" as="geometry" />
        </mxCell>
        <mxCell id="9" value="" style="endArrow=open;strokeColor=#FF0000;endFill=1;rounded=0" parent="2" source="7" target="8" edge="1">
          <mxGeometry relative="1" as="geometry" />
        </mxCell>
        <mxCell id="10" value="Bấm vào tạo sản phẩm" style="" parent="2" vertex="1">
          <mxGeometry x="270" y="340" width="180" height="50" as="geometry" />
        </mxCell>
        <mxCell id="11" value="" style="endArrow=open;strokeColor=#FF0000;endFill=1;rounded=0" parent="2" source="8" target="10" edge="1">
          <mxGeometry relative="1" as="geometry" />
        </mxCell>
        <mxCell id="GnzRzZzqQV_4uN0z8fmv-44" value="Bấm vào xem sản phẩm của mình" style="" vertex="1" parent="2">
          <mxGeometry x="10" y="340" width="190" height="50" as="geometry" />
        </mxCell>
        <mxCell id="GnzRzZzqQV_4uN0z8fmv-45" value="" style="endArrow=open;strokeColor=#FF0000;endFill=1;rounded=0" edge="1" parent="2" source="8" target="GnzRzZzqQV_4uN0z8fmv-44">
          <mxGeometry relative="1" as="geometry">
            <mxPoint x="315" y="280" as="sourcePoint" />
            <mxPoint x="315" y="350" as="targetPoint" />
          </mxGeometry>
        </mxCell>
        <mxCell id="GnzRzZzqQV_4uN0z8fmv-46" value="Bấm vào menu sản phẩm" style="" vertex="1" parent="2">
          <mxGeometry x="10" y="460" width="190" height="50" as="geometry" />
        </mxCell>
        <mxCell id="GnzRzZzqQV_4uN0z8fmv-47" value="" style="endArrow=open;strokeColor=#FF0000;endFill=1;rounded=0" edge="1" parent="2" source="GnzRzZzqQV_4uN0z8fmv-44" target="GnzRzZzqQV_4uN0z8fmv-46">
          <mxGeometry relative="1" as="geometry">
            <mxPoint x="273" y="280" as="sourcePoint" />
            <mxPoint x="157" y="350" as="targetPoint" />
          </mxGeometry>
        </mxCell>
        <mxCell id="GnzRzZzqQV_4uN0z8fmv-48" value="Xóa sản phẩm" style="" vertex="1" parent="2">
          <mxGeometry x="40" y="550" width="130" height="50" as="geometry" />
        </mxCell>
        <mxCell id="GnzRzZzqQV_4uN0z8fmv-49" value="Sửa sản phẩm" style="" vertex="1" parent="2">
          <mxGeometry x="210" y="550" width="125" height="50" as="geometry" />
        </mxCell>
        <mxCell id="GnzRzZzqQV_4uN0z8fmv-50" value="" style="endArrow=open;strokeColor=#FF0000;endFill=1;rounded=0" edge="1" parent="2" source="GnzRzZzqQV_4uN0z8fmv-46" target="GnzRzZzqQV_4uN0z8fmv-49">
          <mxGeometry relative="1" as="geometry">
            <mxPoint x="115" y="400" as="sourcePoint" />
            <mxPoint x="115" y="460" as="targetPoint" />
          </mxGeometry>
        </mxCell>
        <mxCell id="GnzRzZzqQV_4uN0z8fmv-51" value="" style="endArrow=open;strokeColor=#FF0000;endFill=1;rounded=0" edge="1" parent="2" source="GnzRzZzqQV_4uN0z8fmv-46" target="GnzRzZzqQV_4uN0z8fmv-48">
          <mxGeometry relative="1" as="geometry">
            <mxPoint x="125" y="410" as="sourcePoint" />
            <mxPoint x="125" y="470" as="targetPoint" />
          </mxGeometry>
        </mxCell>
        <mxCell id="GnzRzZzqQV_4uN0z8fmv-52" value="Nhập thông tin sửa" style="" vertex="1" parent="2">
          <mxGeometry x="210" y="630" width="125" height="50" as="geometry" />
        </mxCell>
        <mxCell id="GnzRzZzqQV_4uN0z8fmv-55" value="" style="endArrow=open;strokeColor=#FF0000;endFill=1;rounded=0" edge="1" parent="2" source="GnzRzZzqQV_4uN0z8fmv-49" target="GnzRzZzqQV_4uN0z8fmv-52">
          <mxGeometry relative="1" as="geometry">
            <mxPoint x="370" y="575" as="sourcePoint" />
            <mxPoint x="600" y="575" as="targetPoint" />
          </mxGeometry>
        </mxCell>
        <mxCell id="GnzRzZzqQV_4uN0z8fmv-70" value="Nhập thông tin sản phẩm" style="" vertex="1" parent="2">
          <mxGeometry x="270" y="430" width="180" height="50" as="geometry" />
        </mxCell>
        <mxCell id="GnzRzZzqQV_4uN0z8fmv-71" value="" style="endArrow=open;strokeColor=#FF0000;endFill=1;rounded=0" edge="1" parent="2" source="10" target="GnzRzZzqQV_4uN0z8fmv-70">
          <mxGeometry relative="1" as="geometry">
            <mxPoint x="573" y="375" as="sourcePoint" />
            <mxPoint x="460" y="375" as="targetPoint" />
          </mxGeometry>
        </mxCell>
        <mxCell id="3" value="Hệ thống" style="swimlane;whiteSpace=wrap;startSize=23;" parent="1" vertex="1">
          <mxGeometry x="600" y="70" width="280" height="860" as="geometry" />
        </mxCell>
        <mxCell id="16" value="Trả về trang sản phẩm" style="" parent="3" vertex="1">
          <mxGeometry x="72.5" y="340" width="155" height="50" as="geometry" />
        </mxCell>
        <mxCell id="GnzRzZzqQV_4uN0z8fmv-41" value="" style="ellipse;shape=endState;fillColor=#000000;strokeColor=#ff0000" vertex="1" parent="3">
          <mxGeometry x="132.5" y="820" width="30" height="30" as="geometry" />
        </mxCell>
        <mxCell id="GnzRzZzqQV_4uN0z8fmv-53" value="Kiểm tra sản&#xa;phẩm có&#xa;phải của &#xa;user không?" style="rhombus;fillColor=#ffffc0;strokeColor=#ff0000;" vertex="1" parent="3">
          <mxGeometry x="80" y="480" width="135" height="90" as="geometry" />
        </mxCell>
        <mxCell id="GnzRzZzqQV_4uN0z8fmv-57" value="Thông báo thành công" style="" vertex="1" parent="3">
          <mxGeometry x="7.5" y="660" width="125" height="50" as="geometry" />
        </mxCell>
        <mxCell id="GnzRzZzqQV_4uN0z8fmv-63" value="Thông báo &#xa;không có quyền" style="" vertex="1" parent="3">
          <mxGeometry x="147.5" y="660" width="125" height="50" as="geometry" />
        </mxCell>
        <mxCell id="GnzRzZzqQV_4uN0z8fmv-64" value="" style="endArrow=open;strokeColor=#FF0000;endFill=1;rounded=0" edge="1" parent="3" source="GnzRzZzqQV_4uN0z8fmv-53" target="GnzRzZzqQV_4uN0z8fmv-57">
          <mxGeometry relative="1" as="geometry">
            <mxPoint x="-102" y="640" as="sourcePoint" />
            <mxPoint x="123" y="515" as="targetPoint" />
          </mxGeometry>
        </mxCell>
        <mxCell id="GnzRzZzqQV_4uN0z8fmv-65" value="Đúng" style="edgeLabel;html=1;align=center;verticalAlign=middle;resizable=0;points=[];" vertex="1" connectable="0" parent="GnzRzZzqQV_4uN0z8fmv-64">
          <mxGeometry x="-0.1739" y="-2" relative="1" as="geometry">
            <mxPoint as="offset" />
          </mxGeometry>
        </mxCell>
        <mxCell id="GnzRzZzqQV_4uN0z8fmv-66" value="" style="endArrow=open;strokeColor=#FF0000;endFill=1;rounded=0" edge="1" parent="3" source="GnzRzZzqQV_4uN0z8fmv-53" target="GnzRzZzqQV_4uN0z8fmv-63">
          <mxGeometry relative="1" as="geometry">
            <mxPoint x="144" y="529" as="sourcePoint" />
            <mxPoint x="95" y="630" as="targetPoint" />
          </mxGeometry>
        </mxCell>
        <mxCell id="GnzRzZzqQV_4uN0z8fmv-67" value="Sai" style="edgeLabel;html=1;align=center;verticalAlign=middle;resizable=0;points=[];" vertex="1" connectable="0" parent="GnzRzZzqQV_4uN0z8fmv-66">
          <mxGeometry x="-0.1739" y="-2" relative="1" as="geometry">
            <mxPoint as="offset" />
          </mxGeometry>
        </mxCell>
        <mxCell id="GnzRzZzqQV_4uN0z8fmv-68" value="" style="endArrow=open;strokeColor=#FF0000;endFill=1;rounded=0" edge="1" parent="3" source="GnzRzZzqQV_4uN0z8fmv-57" target="GnzRzZzqQV_4uN0z8fmv-41">
          <mxGeometry relative="1" as="geometry">
            <mxPoint x="-102" y="640" as="sourcePoint" />
            <mxPoint x="123" y="515" as="targetPoint" />
          </mxGeometry>
        </mxCell>
        <mxCell id="GnzRzZzqQV_4uN0z8fmv-69" value="" style="endArrow=open;strokeColor=#FF0000;endFill=1;rounded=0" edge="1" parent="3" source="GnzRzZzqQV_4uN0z8fmv-63" target="GnzRzZzqQV_4uN0z8fmv-41">
          <mxGeometry relative="1" as="geometry">
            <mxPoint x="-92" y="650" as="sourcePoint" />
            <mxPoint x="133" y="525" as="targetPoint" />
          </mxGeometry>
        </mxCell>
        <mxCell id="19" value="" style="endArrow=open;strokeColor=#FF0000;endFill=1;rounded=0" parent="1" source="16" target="10" edge="1">
          <mxGeometry relative="1" as="geometry">
            <mxPoint x="675" y="395" as="targetPoint" />
          </mxGeometry>
        </mxCell>
        <mxCell id="GnzRzZzqQV_4uN0z8fmv-42" value="" style="endArrow=open;strokeColor=#FF0000;endFill=1;rounded=0" edge="1" parent="1" source="8" target="16">
          <mxGeometry relative="1" as="geometry">
            <mxPoint x="683" y="445" as="sourcePoint" />
            <mxPoint x="325" y="445" as="targetPoint" />
          </mxGeometry>
        </mxCell>
        <mxCell id="GnzRzZzqQV_4uN0z8fmv-54" value="" style="endArrow=open;strokeColor=#FF0000;endFill=1;rounded=0" edge="1" parent="1" source="GnzRzZzqQV_4uN0z8fmv-52" target="GnzRzZzqQV_4uN0z8fmv-53">
          <mxGeometry relative="1" as="geometry">
            <mxPoint x="347" y="590" as="sourcePoint" />
            <mxPoint x="385" y="620" as="targetPoint" />
          </mxGeometry>
        </mxCell>
        <mxCell id="GnzRzZzqQV_4uN0z8fmv-56" value="" style="endArrow=open;strokeColor=#FF0000;endFill=1;rounded=0" edge="1" parent="1" source="GnzRzZzqQV_4uN0z8fmv-48" target="GnzRzZzqQV_4uN0z8fmv-53">
          <mxGeometry relative="1" as="geometry">
            <mxPoint x="471" y="700" as="sourcePoint" />
            <mxPoint x="720" y="584" as="targetPoint" />
            <Array as="points">
              <mxPoint x="215" y="770" />
              <mxPoint x="550" y="770" />
              <mxPoint x="550" y="690" />
            </Array>
          </mxGeometry>
        </mxCell>
        <mxCell id="GnzRzZzqQV_4uN0z8fmv-72" value="" style="endArrow=open;strokeColor=#FF0000;endFill=1;rounded=0" edge="1" parent="1" source="GnzRzZzqQV_4uN0z8fmv-70" target="GnzRzZzqQV_4uN0z8fmv-41">
          <mxGeometry relative="1" as="geometry">
            <mxPoint x="480" y="470" as="sourcePoint" />
            <mxPoint x="480" y="510" as="targetPoint" />
            <Array as="points">
              <mxPoint x="470" y="905" />
            </Array>
          </mxGeometry>
        </mxCell>
      </root>
    </mxGraphModel>
  </diagram>
</mxfile>
